<svg width="28" height="28" viewBox="0 0 28 28" fill="none" xmlns="http://www.w3.org/2000/svg">
<g clip-path="url(#clip0_400_60)">
<path d="M1.09493 18.5117C0.400711 16.458 0.195183 14.2637 0.495506 12.1119C0.795829 9.96005 1.59329 7.91317 2.82133 6.14207C4.04937 4.37098 5.67237 2.92703 7.55485 1.93076C9.43734 0.93449 11.5247 0.41479 13.6427 0.415039C15.7608 0.415288 17.848 0.935478 19.7303 1.93219C21.6126 2.92891 23.2352 4.37323 24.4629 6.14462C25.6905 7.916 26.4875 9.96306 26.7874 12.1149C27.0872 14.2668 26.8812 16.4611 26.1865 18.5146" stroke="#A9A9A9" stroke-linecap="round" stroke-linejoin="round"/>
<path d="M10.2171 26.1335C9.00659 27.1733 7.44476 27.68 5.87188 27.5432C4.299 27.4063 2.84256 26.637 1.81989 25.403C0.797222 24.1689 0.291214 22.57 0.41212 20.9547C0.533026 19.3394 1.27105 17.8386 2.46538 16.7793L10.2171 26.1335ZM17.0649 26.1335C17.6623 26.6634 18.3561 27.0667 19.1061 27.3201C19.8561 27.5735 20.6476 27.672 21.4349 27.6099C22.2223 27.5478 22.9898 27.3264 23.6933 26.9584C24.3969 26.5904 25.0224 26.0831 25.534 25.4658C26.0456 24.8485 26.433 24.1333 26.674 23.3615C26.915 22.5898 27.0047 21.7767 26.938 20.9692C26.8713 20.1617 26.6495 19.3757 26.2854 18.6566C25.9213 17.9375 25.4221 17.2994 24.8166 16.7793L17.0649 26.1335Z" stroke="#A9A9A9" stroke-linecap="round" stroke-linejoin="round"/>
</g>
<defs>
<clipPath id="clip0_400_60">
<rect width="28" height="28" fill="white"/>
</clipPath>
</defs>
</svg>
