<svg width="28" height="28" viewBox="0 0 28 28" fill="none" xmlns="http://www.w3.org/2000/svg">
<path d="M13.6415 3.2303L13.9999 3.59888L14.3584 3.23039C17.2399 0.268349 20.3762 -0.0857865 22.8837 1.23156L23.1163 0.788923L22.8837 1.23156C25.5748 2.64523 27.5 5.97311 27.5 9.87973C27.5 13.7317 26.1075 16.6697 24.2614 19.0566C22.7763 20.9761 20.9523 22.5918 19.3065 24.0472C18.9447 24.3658 18.5847 24.6872 18.2266 25.0113C17.5537 25.6201 16.8654 26.238 16.1739 26.7021C15.481 27.1664 14.7529 27.5 14 27.5C13.2471 27.5 12.519 27.1665 11.8262 26.7021C11.1358 26.2379 10.4459 25.6197 9.77338 25.0113C9.42839 24.6979 9.06573 24.3761 8.69331 24.047C7.04631 22.5918 5.22369 20.9775 3.73864 19.0566L3.73858 19.0566C1.8925 16.6697 0.5 13.7317 0.5 9.87973C0.5 5.97345 2.42628 2.64525 5.11645 1.22846C7.62398 -0.0872993 10.7601 0.266992 13.6415 3.2303Z" stroke="#A9A9A9"/>
</svg>
