<svg width="28" height="28" viewBox="0 0 28 28" fill="none" xmlns="http://www.w3.org/2000/svg">
<g clip-path="url(#clip0_400_91)">
<path d="M2.82625 28C2.02125 28 1.34925 27.7305 0.81025 27.1915C0.270083 26.6513 0 25.9788 0 25.1737V20.5958C0 20.3472 0.0834169 20.1396 0.25025 19.9727C0.41825 19.8048 0.6265 19.7208 0.875 19.7208C1.1235 19.7208 1.33175 19.8048 1.49975 19.9727C1.66775 20.1408 1.75117 20.3484 1.75 20.5958V25.1737C1.75 25.4421 1.862 25.6888 2.086 25.914C2.31117 26.138 2.55792 26.25 2.82625 26.25H25.1737C25.4421 26.25 25.6888 26.138 25.914 25.914C26.138 25.6888 26.25 25.4421 26.25 25.1737V2.82625C26.25 2.55792 26.138 2.31117 25.914 2.086C25.6888 1.862 25.4421 1.75 25.1737 1.75H2.82625C2.55792 1.75 2.31117 1.862 2.086 2.086C1.862 2.31117 1.75 2.55792 1.75 2.82625V7.40425C1.75 7.65275 1.66658 7.861 1.49975 8.029C1.33292 8.197 1.12467 8.27983 0.875 8.2775C0.6265 8.2775 0.41825 8.1935 0.25025 8.0255C0.0834169 7.85983 0 7.65333 0 7.406V2.82625C0 2.02125 0.270083 1.34925 0.81025 0.81025C1.34925 0.270083 2.02125 0 2.82625 0H25.1737C25.9788 0 26.6508 0.270083 27.1898 0.81025C27.7299 1.34925 28 2.02125 28 2.82625V25.1737C28 25.9788 27.7305 26.6508 27.1915 27.1898C26.6513 27.7299 25.9788 28 25.1737 28H2.82625ZM15.4735 14.875H0.875C0.6265 14.875 0.41825 14.7916 0.25025 14.6248C0.0834169 14.4568 0 14.2485 0 14C0 13.7515 0.0834169 13.5432 0.25025 13.3752C0.41825 13.2084 0.6265 13.125 0.875 13.125H15.4735L11.361 9.0125C11.1907 8.84217 11.1014 8.6415 11.0932 8.4105C11.0862 8.1795 11.1755 7.96717 11.361 7.7735C11.5547 7.581 11.7629 7.483 11.9858 7.4795C12.2086 7.476 12.4168 7.57108 12.6105 7.76475L17.857 13.0113C18.0087 13.1629 18.116 13.3187 18.179 13.4785C18.2397 13.6372 18.27 13.811 18.27 14C18.27 14.189 18.2397 14.3628 18.179 14.5215C18.1172 14.6813 18.0098 14.8371 17.857 14.9887L12.6105 20.2352C12.4402 20.4067 12.2378 20.496 12.0033 20.503C11.7688 20.5112 11.5547 20.419 11.361 20.2265C11.1743 20.0328 11.0798 19.8263 11.0775 19.607C11.074 19.3865 11.1685 19.18 11.361 18.9875L15.4735 14.875Z" fill="#A9A9A9"/>
</g>
<defs>
<clipPath id="clip0_400_91">
<rect width="28" height="28" fill="white"/>
</clipPath>
</defs>
</svg>
