<svg width="174" height="21" viewBox="0 0 174 21" fill="none" xmlns="http://www.w3.org/2000/svg">
<path d="M3.14 7.547H17.952V1.314C17.952 0.869333 18.0823 0.577999 18.343 0.439999C18.6037 0.301999 18.987 0.232999 19.493 0.232999C19.9837 0.232999 20.3593 0.301999 20.62 0.439999C20.8807 0.577999 21.011 0.869333 21.011 1.314V16.011C21.011 16.4557 20.8807 16.747 20.62 16.885C20.3593 17.023 19.9837 17.092 19.493 17.092C18.987 17.092 18.6037 17.023 18.343 16.885C18.0823 16.747 17.952 16.4557 17.952 16.011V10.031H3.14V16.011C3.14 16.4557 3.00967 16.747 2.749 16.885C2.48833 17.023 2.105 17.092 1.599 17.092C1.10833 17.092 0.732667 17.023 0.472 16.885C0.211333 16.747 0.081 16.4557 0.081 16.011V1.314C0.081 0.869333 0.211333 0.577999 0.472 0.439999C0.732667 0.301999 1.10833 0.232999 1.599 0.232999C2.105 0.232999 2.48833 0.301999 2.749 0.439999C3.00967 0.577999 3.14 0.869333 3.14 1.314V7.547ZM26.0918 16.011C26.0918 16.4557 25.9692 16.747 25.7238 16.885C25.4785 17.023 25.1105 17.092 24.6198 17.092C24.1292 17.092 23.7612 17.023 23.5158 16.885C23.2858 16.747 23.1708 16.4557 23.1708 16.011V5.155C23.1708 4.71033 23.2858 4.419 23.5158 4.281C23.7612 4.143 24.1292 4.074 24.6198 4.074C25.1105 4.074 25.4785 4.143 25.7238 4.281C25.9692 4.419 26.0918 4.71033 26.0918 5.155V16.011ZM22.8028 1.659C22.8028 1.16833 22.9408 0.807999 23.2168 0.577999C23.5082 0.347999 23.9758 0.232999 24.6198 0.232999C25.2638 0.232999 25.7238 0.347999 25.9998 0.577999C26.2912 0.807999 26.4368 1.16833 26.4368 1.659C26.4368 2.14967 26.2912 2.51 25.9998 2.74C25.7238 2.97 25.2638 3.085 24.6198 3.085C23.9758 3.085 23.5082 2.97 23.2168 2.74C22.9408 2.51 22.8028 2.14967 22.8028 1.659ZM37.194 20.772C36.8413 20.772 36.6113 20.6723 36.504 20.473C36.412 20.2737 36.366 19.9823 36.366 19.599C36.366 19.2157 36.412 18.9243 36.504 18.725C36.6113 18.541 36.8413 18.449 37.194 18.449H40.368C41.5027 18.449 42.2923 18.3033 42.737 18.012C43.1817 17.736 43.404 17.3297 43.404 16.793V16.678H34.549C30.2097 16.678 28.04 15.344 28.04 12.676V8.007C28.04 5.339 30.2097 4.005 34.549 4.005H39.816C44.1554 4.005 46.325 5.339 46.325 8.007V16.793C46.325 18.127 45.8114 19.1237 44.784 19.783C43.772 20.4423 42.3 20.772 40.368 20.772H37.194ZM43.404 14.401V8.007C43.404 7.547 43.1127 7.156 42.53 6.834C41.9474 6.49667 41.012 6.328 39.724 6.328H34.641C33.353 6.328 32.4177 6.49667 31.835 6.834C31.2523 7.156 30.961 7.547 30.961 8.007V12.722C30.961 13.1973 31.2523 13.596 31.835 13.918C32.4177 14.24 33.353 14.401 34.641 14.401H43.404ZM49.8435 17.092C49.3528 17.092 48.9848 17.023 48.7395 16.885C48.5095 16.747 48.3945 16.4557 48.3945 16.011V1.314C48.3945 0.869333 48.5095 0.577999 48.7395 0.439999C48.9848 0.301999 49.3528 0.232999 49.8435 0.232999C50.3341 0.232999 50.7021 0.301999 50.9475 0.439999C51.1928 0.577999 51.3155 0.869333 51.3155 1.314V4.005H60.1475C64.4868 4.005 66.6565 5.339 66.6565 8.007V16.011C66.6565 16.4557 66.5338 16.747 66.2885 16.885C66.0431 17.023 65.6751 17.092 65.1845 17.092C64.6938 17.092 64.3258 17.023 64.0805 16.885C63.8505 16.747 63.7355 16.4557 63.7355 16.011V8.007C63.7355 7.53167 63.4441 7.133 62.8615 6.811C62.2788 6.489 61.3435 6.328 60.0555 6.328H51.3155V16.011C51.3155 16.4557 51.1928 16.747 50.9475 16.885C50.7021 17.023 50.3341 17.092 49.8435 17.092Z" fill="white"/>
<path d="M75.4376 17C70.899 17 68.6296 15.574 68.6296 12.722V1.314C68.6296 0.869333 68.76 0.577999 69.0206 0.439999C69.2813 0.301999 69.657 0.232999 70.1476 0.232999C70.6536 0.232999 71.037 0.301999 71.2976 0.439999C71.5583 0.577999 71.6886 0.869333 71.6886 1.314V12.722C71.6886 13.2127 71.9876 13.6343 72.5856 13.987C73.199 14.3397 74.1803 14.516 75.5296 14.516H86.7996C87.1676 14.516 87.4053 14.6233 87.5126 14.838C87.62 15.0373 87.6736 15.3363 87.6736 15.735C87.6736 16.149 87.62 16.4633 87.5126 16.678C87.4053 16.8927 87.1676 17 86.7996 17H75.4376ZM91.9473 16.011C91.9473 16.4557 91.8246 16.747 91.5793 16.885C91.334 17.023 90.966 17.092 90.4753 17.092C89.9846 17.092 89.6166 17.023 89.3713 16.885C89.1413 16.747 89.0263 16.4557 89.0263 16.011V5.155C89.0263 4.71033 89.1413 4.419 89.3713 4.281C89.6166 4.143 89.9846 4.074 90.4753 4.074C90.966 4.074 91.334 4.143 91.5793 4.281C91.8246 4.419 91.9473 4.71033 91.9473 5.155V16.011ZM88.6583 1.659C88.6583 1.16833 88.7963 0.807999 89.0723 0.577999C89.3636 0.347999 89.8313 0.232999 90.4753 0.232999C91.1193 0.232999 91.5793 0.347999 91.8553 0.577999C92.1466 0.807999 92.2923 1.16833 92.2923 1.659C92.2923 2.14967 92.1466 2.51 91.8553 2.74C91.5793 2.97 91.1193 3.085 90.4753 3.085C89.8313 3.085 89.3636 2.97 89.0723 2.74C88.7963 2.51 88.6583 2.14967 88.6583 1.659ZM103.049 20.772C102.697 20.772 102.467 20.6723 102.359 20.473C102.267 20.2737 102.221 19.9823 102.221 19.599C102.221 19.2157 102.267 18.9243 102.359 18.725C102.467 18.541 102.697 18.449 103.049 18.449H106.223C107.358 18.449 108.148 18.3033 108.592 18.012C109.037 17.736 109.259 17.3297 109.259 16.793V16.678H100.404C96.0652 16.678 93.8955 15.344 93.8955 12.676V8.007C93.8955 5.339 96.0652 4.005 100.404 4.005H105.671C110.011 4.005 112.18 5.339 112.18 8.007V16.793C112.18 18.127 111.667 19.1237 110.639 19.783C109.627 20.4423 108.155 20.772 106.223 20.772H103.049ZM109.259 14.401V8.007C109.259 7.547 108.968 7.156 108.385 6.834C107.803 6.49667 106.867 6.328 105.579 6.328H100.496C99.2085 6.328 98.2732 6.49667 97.6905 6.834C97.1078 7.156 96.8165 7.547 96.8165 8.007V12.722C96.8165 13.1973 97.1078 13.596 97.6905 13.918C98.2732 14.24 99.2085 14.401 100.496 14.401H109.259ZM115.699 17.092C115.208 17.092 114.84 17.023 114.595 16.885C114.365 16.747 114.25 16.4557 114.25 16.011V1.314C114.25 0.869333 114.365 0.577999 114.595 0.439999C114.84 0.301999 115.208 0.232999 115.699 0.232999C116.19 0.232999 116.558 0.301999 116.803 0.439999C117.048 0.577999 117.171 0.869333 117.171 1.314V4.005H126.003C130.342 4.005 132.512 5.339 132.512 8.007V16.011C132.512 16.4557 132.389 16.747 132.144 16.885C131.899 17.023 131.531 17.092 131.04 17.092C130.549 17.092 130.181 17.023 129.936 16.885C129.706 16.747 129.591 16.4557 129.591 16.011V8.007C129.591 7.53167 129.3 7.133 128.717 6.811C128.134 6.489 127.199 6.328 125.911 6.328H117.171V16.011C117.171 16.4557 117.048 16.747 116.803 16.885C116.558 17.023 116.19 17.092 115.699 17.092ZM135.911 4.005V1.314C135.911 0.869333 136.026 0.577999 136.256 0.439999C136.501 0.301999 136.869 0.232999 137.36 0.232999C137.851 0.232999 138.219 0.301999 138.464 0.439999C138.709 0.577999 138.832 0.869333 138.832 1.314V4.005H143.685C144.038 4.005 144.26 4.10467 144.352 4.304C144.459 4.50333 144.513 4.79467 144.513 5.178C144.513 5.56133 144.459 5.85267 144.352 6.052C144.26 6.236 144.038 6.328 143.685 6.328H138.832V16.011C138.832 16.4557 138.709 16.747 138.464 16.885C138.219 17.023 137.851 17.092 137.36 17.092C136.869 17.092 136.501 17.023 136.256 16.885C136.026 16.747 135.911 16.4557 135.911 16.011V6.328H134.6C134.247 6.328 134.017 6.236 133.91 6.052C133.818 5.85267 133.772 5.56133 133.772 5.178C133.772 4.79467 133.818 4.50333 133.91 4.304C134.017 4.10467 134.247 4.005 134.6 4.005H135.911ZM148.207 11.825V12.998C148.207 13.458 148.498 13.8567 149.081 14.194C149.664 14.516 150.599 14.677 151.887 14.677H154.532C154.885 14.677 155.107 14.7767 155.199 14.976C155.306 15.16 155.36 15.4437 155.36 15.827C155.36 16.2103 155.306 16.5017 155.199 16.701C155.107 16.9003 154.885 17 154.532 17H151.795C147.456 17 145.286 15.666 145.286 12.998V8.007C145.286 5.339 147.456 4.005 151.795 4.005H157.108C159.408 4.005 161.064 4.33467 162.076 4.994C163.103 5.65333 163.617 6.65767 163.617 8.007V10.652C163.617 11.0967 163.533 11.4033 163.364 11.572C163.195 11.7407 162.82 11.825 162.237 11.825H148.207ZM148.207 9.548H160.696V8.007C160.696 7.47033 160.405 7.05633 159.822 6.765C159.255 6.47367 158.319 6.328 157.016 6.328H151.887C150.599 6.328 149.664 6.489 149.081 6.811C148.498 7.133 148.207 7.53167 148.207 8.007V9.548ZM173.053 4.005C173.405 4.005 173.628 4.10467 173.72 4.304C173.827 4.50333 173.881 4.79467 173.881 5.178C173.881 5.56133 173.827 5.85267 173.72 6.052C173.628 6.236 173.405 6.328 173.053 6.328H171.259C170.124 6.328 169.334 6.47367 168.89 6.765C168.445 7.05633 168.223 7.46267 168.223 7.984V16.011C168.223 16.4557 168.1 16.747 167.855 16.885C167.609 17.023 167.241 17.092 166.751 17.092C166.26 17.092 165.892 17.023 165.647 16.885C165.417 16.747 165.302 16.4557 165.302 16.011V7.984C165.302 6.65 165.808 5.65333 166.82 4.994C167.847 4.33467 169.327 4.005 171.259 4.005H173.053Z" fill="#FF4136"/>
</svg>
