<svg width="28" height="28" viewBox="0 0 28 28" fill="none" xmlns="http://www.w3.org/2000/svg">
<path d="M18.8034 10.0619L15.7829 13.9894L11.4487 11.0864C11.3298 11.0064 11.1884 10.9758 11.0505 11.0001C10.9125 11.0244 10.7872 11.102 10.6974 11.2188L7.13672 15.8463C7.03724 15.9755 6.98892 16.1426 7.00237 16.3108C7.01583 16.4789 7.08996 16.6344 7.20847 16.7429C7.32698 16.8514 7.48015 16.9041 7.63429 16.8894C7.78843 16.8748 7.93091 16.7939 8.03039 16.6646L11.2667 12.4571L15.6009 15.3601C15.8471 15.5255 16.1667 15.4683 16.3534 15.2277L19.6971 10.8802C19.7965 10.751 19.8449 10.5839 19.8314 10.4157C19.8179 10.2476 19.7438 10.0921 19.6253 9.98362C19.5068 9.8751 19.3536 9.82238 19.1995 9.83706C19.0453 9.85174 18.9029 9.93261 18.8034 10.0619ZM14.0002 0C6.66772 0 1.13772 5.84674 1.13772 13.6C1.11542 15.495 1.46527 17.3733 2.16375 19.1087C2.86223 20.844 3.89315 22.396 5.18722 23.6606C5.27005 23.7369 5.32022 23.8502 5.32489 23.9686L5.39255 26.3447C5.40064 26.6242 5.47147 26.8973 5.59884 27.14C5.7262 27.3827 5.90621 27.5876 6.12307 27.7367C6.33993 27.8858 6.58702 27.9746 6.84267 27.9953C7.09833 28.016 7.35473 27.968 7.58939 27.8554L10.0254 26.6845C10.108 26.6431 10.2014 26.635 10.2891 26.6616C11.4989 27.0218 12.7472 27.2025 14.0002 27.1987C21.3327 27.1987 26.8627 21.3519 26.8627 13.6C26.8627 5.84801 21.3327 0 14.0002 0ZM14.0002 25.926C12.8511 25.9293 11.7068 25.7636 10.5982 25.4334C10.2516 25.3329 9.88393 25.3634 9.55522 25.52L7.12155 26.6896C7.06088 26.7183 6.99468 26.7302 6.92877 26.7245C6.86286 26.7187 6.79926 26.6954 6.74355 26.6565C6.68863 26.6191 6.64304 26.5675 6.61088 26.5062C6.57871 26.4449 6.56097 26.3758 6.55922 26.3052L6.49155 23.924C6.48345 23.6939 6.43276 23.4679 6.34254 23.2597C6.25232 23.0515 6.12443 22.8653 5.96655 22.7124C4.79504 21.5668 3.86197 20.1608 3.2301 18.5891C2.59822 17.0173 2.28217 15.3161 2.30322 13.6C2.30439 6.57217 7.33272 1.27269 14.0002 1.27269C20.6677 1.27269 25.6961 6.57217 25.6961 13.6C25.6961 20.6278 20.6677 25.926 14.0002 25.926Z" fill="#A9A9A9"/>
</svg>
