<svg width="24" height="24" viewBox="0 0 24 24" fill="none" xmlns="http://www.w3.org/2000/svg">
<path d="M23.25 23.5L17.8213 18.0713M17.8213 18.0713C18.7499 17.1427 19.4865 16.0403 19.9891 14.827C20.4916 13.6138 20.7503 12.3134 20.7503 11.0001C20.7503 9.68691 20.4916 8.38653 19.9891 7.17325C19.4865 5.95998 18.7499 4.85757 17.8213 3.92897C16.8927 3.00037 15.7903 2.26377 14.577 1.76122C13.3638 1.25866 12.0634 1 10.7501 1C9.43691 1 8.13653 1.25866 6.92325 1.76122C5.70998 2.26377 4.60757 3.00037 3.67897 3.92897C1.80358 5.80436 0.75 8.34794 0.75 11.0001C0.75 13.6523 1.80358 16.1959 3.67897 18.0713C5.55436 19.9467 8.09794 21.0003 10.7501 21.0003C13.4023 21.0003 15.9459 19.9467 17.8213 18.0713Z" stroke="#A9A9A9" stroke-linecap="round" stroke-linejoin="round"/>
</svg>
