<svg width="28" height="28" viewBox="0 0 28 28" fill="none" xmlns="http://www.w3.org/2000/svg">
<g clip-path="url(#clip0_400_87)">
<path d="M13.9995 9.65513C12.6734 9.65513 11.4017 10.1638 10.464 11.0691C9.52631 11.9744 8.99952 13.2024 8.99952 14.4827C8.99952 15.7631 9.52631 16.991 10.464 17.8963C11.4017 18.8017 12.6734 19.3103 13.9995 19.3103C15.3256 19.3103 16.5974 18.8017 17.5351 17.8963C18.4727 16.991 18.9995 15.7631 18.9995 14.4827C18.9995 13.2024 18.4727 11.9744 17.5351 11.0691C16.5974 10.1638 15.3256 9.65513 13.9995 9.65513ZM10.9995 14.4827C10.9995 13.7145 11.3156 12.9778 11.8782 12.4345C12.4408 11.8913 13.2039 11.5862 13.9995 11.5862C14.7952 11.5862 15.5582 11.8913 16.1208 12.4345C16.6835 12.9778 16.9995 13.7145 16.9995 14.4827C16.9995 15.2509 16.6835 15.9877 16.1208 16.5309C15.5582 17.0741 14.7952 17.3793 13.9995 17.3793C13.2039 17.3793 12.4408 17.0741 11.8782 16.5309C11.3156 15.9877 10.9995 15.2509 10.9995 14.4827ZM10.8395 27.6408C11.8745 27.8793 12.9355 28 13.9995 28C15.0625 27.9984 16.1217 27.8769 17.1555 27.6379C17.4526 27.5703 17.7207 27.4156 17.923 27.195C18.1253 26.9744 18.252 26.6988 18.2855 26.4059L18.5195 24.3493C18.5421 24.125 18.6196 23.9091 18.7458 23.7194C18.8719 23.5297 19.0429 23.3717 19.2448 23.2585C19.4467 23.1453 19.6736 23.0801 19.9067 23.0683C20.1398 23.0565 20.3725 23.0985 20.5855 23.1907L22.5405 24.0172C22.8204 24.1361 23.1317 24.1679 23.4311 24.1083C23.7306 24.0486 24.0033 23.9003 24.2115 23.6841C25.6561 22.1813 26.7344 20.3858 27.3675 18.4288C27.4583 18.1457 27.4556 17.8424 27.3597 17.5609C27.2638 17.2794 27.0796 17.0337 26.8325 16.8579L25.1035 15.6269C24.9147 15.494 24.7611 15.3198 24.6553 15.1187C24.5495 14.9175 24.4945 14.695 24.4947 14.4694C24.495 14.2438 24.5506 14.0215 24.6569 13.8206C24.7633 13.6197 24.9173 13.4459 25.1065 13.3135L26.8265 12.0873C27.075 11.9119 27.2604 11.6659 27.3567 11.3836C27.453 11.1014 27.4554 10.7971 27.3635 10.5135C26.7315 8.55579 25.6527 6.75993 24.2065 5.25817C23.9974 5.04232 23.7242 4.89437 23.4244 4.83472C23.1246 4.77506 22.813 4.80662 22.5325 4.92506L20.5865 5.75155C20.3732 5.84132 20.1411 5.88137 19.9088 5.86847C19.6765 5.85557 19.4506 5.79007 19.2493 5.67728C19.0481 5.56448 18.8772 5.40756 18.7504 5.21918C18.6236 5.03081 18.5445 4.81628 18.5195 4.59292L18.2835 2.54603C18.2505 2.24967 18.1221 1.97076 17.9164 1.74855C17.7106 1.52633 17.4379 1.372 17.1365 1.30727C16.1097 1.08573 15.0616 0.968266 14.0095 0.956787C12.9512 0.968887 11.8969 1.08634 10.8635 1.30727C10.5621 1.37089 10.2892 1.52451 10.0833 1.74634C9.87741 1.96816 9.74909 2.24694 9.71652 2.54313L9.47952 4.59196C9.45363 4.81565 9.37385 5.03038 9.24657 5.21895C9.11928 5.40752 8.94803 5.56469 8.74653 5.67787C8.54503 5.79106 8.31887 5.85711 8.08618 5.87074C7.85349 5.88437 7.62072 5.84521 7.40652 5.75637L5.46052 4.92892C5.17974 4.81378 4.86917 4.78444 4.5706 4.84486C4.27203 4.90527 3.99979 5.05255 3.79052 5.26686C2.34416 6.77007 1.26445 8.56669 0.630523 10.5251C0.540297 10.808 0.543418 11.1109 0.639452 11.3921C0.735485 11.6732 0.91968 11.9185 1.16652 12.094L2.89152 13.3222C3.07943 13.4557 3.2322 13.63 3.33748 13.831C3.44277 14.032 3.49763 14.2541 3.49763 14.4793C3.49763 14.7046 3.44277 14.9267 3.33748 15.1277C3.2322 15.3287 3.07943 15.503 2.89152 15.6365L1.16652 16.8675C0.918747 17.0434 0.734018 17.2896 0.63811 17.5718C0.542203 17.8539 0.5399 18.1579 0.631523 18.4413C1.26516 20.401 2.34486 22.1989 3.79152 23.7034C3.92905 23.8462 4.0958 23.9598 4.28119 24.0371C4.46659 24.1144 4.66659 24.1536 4.86852 24.1524C5.07152 24.1524 5.27252 24.1118 5.45952 24.0336L7.41452 23.2042C7.62776 23.1153 7.85963 23.0759 8.09151 23.0892C8.32339 23.1024 8.5488 23.1681 8.74964 23.2808C8.95048 23.3934 9.12113 23.55 9.2479 23.738C9.37466 23.9259 9.45399 24.1399 9.47952 24.3629L9.71452 26.4155C9.74865 26.7068 9.87499 26.9809 10.0763 27.2003C10.2776 27.4197 10.5442 27.5729 10.8395 27.6408ZM16.3405 25.8391C14.7976 26.1447 13.2065 26.1447 11.6635 25.8391L11.4685 24.1591C11.3732 23.3373 10.9673 22.5782 10.3285 22.0273C9.8284 21.6021 9.21396 21.3221 8.55611 21.2196C7.89825 21.1171 7.22378 21.1963 6.61052 21.448L5.00452 22.1238C3.96851 20.9784 3.17126 19.6507 2.65652 18.2135L4.08052 17.1978C4.52046 16.8848 4.87808 16.4763 5.12454 16.0054C5.37099 15.5345 5.4994 15.0142 5.4994 14.4866C5.4994 13.9589 5.37099 13.4387 5.12454 12.9678C4.87808 12.4968 4.52046 12.0884 4.08052 11.7754L2.65952 10.7626C3.17486 9.32681 3.97208 8.00044 5.00752 6.8561L6.60752 7.53196C7.04852 7.71998 7.52544 7.81668 8.00752 7.81582C8.86601 7.81322 9.69357 7.50607 10.3328 6.95278C10.972 6.3995 11.3784 5.63867 11.4745 4.81499L11.6685 3.12823C12.4425 2.98341 13.2285 2.90617 14.0155 2.89651C14.7975 2.90617 15.5775 2.98341 16.3455 3.12823L16.5315 4.80824C16.6242 5.63244 17.0291 6.39448 17.6685 6.94782C18.169 7.37561 18.785 7.65721 19.4449 7.75978C20.1048 7.86235 20.7813 7.78166 21.3955 7.52713L22.9955 6.85127C24.0324 7.9953 24.8304 9.32214 25.3455 10.7587L23.9225 11.7686C23.4803 12.0806 23.1206 12.4888 22.8726 12.9603C22.6246 13.4317 22.4954 13.953 22.4954 14.4818C22.4954 15.0105 22.6246 15.5318 22.8726 16.0032C23.1206 16.4747 23.4803 16.8829 23.9225 17.1949L25.3445 18.2086C24.8289 19.6425 24.0328 20.9674 22.9995 22.1113L21.3995 21.4354C20.8988 21.2203 20.3525 21.1226 19.8053 21.1504C19.258 21.1781 18.7253 21.3306 18.2507 21.5952C17.7761 21.8598 17.3732 22.2291 17.0747 22.6728C16.7762 23.1166 16.5908 23.6223 16.5335 24.1485L16.3405 25.8391Z" fill="#A9A9A9"/>
</g>
<defs>
<clipPath id="clip0_400_87">
<rect width="28" height="28" fill="white"/>
</clipPath>
</defs>
</svg>
